<svg id="eeaJGK8nXtb1" xmlns="http://www.w3.org/2000/svg" xmlns:xlink="http://www.w3.org/1999/xlink" viewBox="0 0 223 180" shape-rendering="geometricPrecision" text-rendering="geometricPrecision" project-id="b515d6c173494fc9a741ba9b1dba161c" export-id="97d1cd0831ff4203a82387ef2098810b" cached="false">
<style><![CDATA[
#eeaJGK8nXtb14 {animation: eeaJGK8nXtb14_c_o 6000ms linear infinite normal forwards}@keyframes eeaJGK8nXtb14_c_o { 0% {opacity: 0} 23.333333% {opacity: 1} 76.166667% {opacity: 0.187179} 98.333333% {opacity: 0} 100% {opacity: 0}} #eeaJGK8nXtb29 {animation: eeaJGK8nXtb29_c_o 6000ms linear infinite normal forwards}@keyframes eeaJGK8nXtb29_c_o { 0% {opacity: 0} 40% {opacity: 0} 78.333333% {opacity: 0} 100% {opacity: 0}} #eeaJGK8nXtb37 {animation: eeaJGK8nXtb37_c_o 6000ms linear infinite normal forwards}@keyframes eeaJGK8nXtb37_c_o { 0% {opacity: 0} 48.333333% {opacity: 0} 55% {opacity: 1} 60% {opacity: 0} 100% {opacity: 0}} #eeaJGK8nXtb38 {animation: eeaJGK8nXtb38_c_o 6000ms linear infinite normal forwards}@keyframes eeaJGK8nXtb38_c_o { 0% {opacity: 0} 60% {opacity: 0} 65% {opacity: 1} 70% {opacity: 0} 100% {opacity: 0}} #eeaJGK8nXtb39 {animation: eeaJGK8nXtb39_c_o 6000ms linear infinite normal forwards}@keyframes eeaJGK8nXtb39_c_o { 0% {opacity: 0} 71.666667% {opacity: 0} 76.666667% {opacity: 1} 81.666667% {opacity: 0} 100% {opacity: 0}}
]]></style>
<defs><linearGradient id="eeaJGK8nXtb4-fill" x1="72.9458" y1="2.0781" x2="152.518" y2="250.013" spreadMethod="pad" gradientUnits="userSpaceOnUse" gradientTransform="translate(0 0)"><stop id="eeaJGK8nXtb4-fill-0" offset="0%" stop-color="#ca9733"/><stop id="eeaJGK8nXtb4-fill-1" offset="32.5%" stop-color="#f0be66"/><stop id="eeaJGK8nXtb4-fill-2" offset="59.5%" stop-color="#985a21"/><stop id="eeaJGK8nXtb4-fill-3" offset="92%" stop-color="#efac48"/></linearGradient><linearGradient id="eeaJGK8nXtb6-fill" x1="72.9458" y1="2.0781" x2="152.518" y2="250.013" spreadMethod="pad" gradientUnits="userSpaceOnUse" gradientTransform="translate(0 0)"><stop id="eeaJGK8nXtb6-fill-0" offset="0%" stop-color="#ca9733"/><stop id="eeaJGK8nXtb6-fill-1" offset="32.5%" stop-color="#f0be66"/><stop id="eeaJGK8nXtb6-fill-2" offset="59.5%" stop-color="#985a21"/><stop id="eeaJGK8nXtb6-fill-3" offset="92%" stop-color="#efac48"/></linearGradient><linearGradient id="eeaJGK8nXtb8-fill" x1="72.9458" y1="2.0781" x2="152.518" y2="250.013" spreadMethod="pad" gradientUnits="userSpaceOnUse" gradientTransform="translate(0 0)"><stop id="eeaJGK8nXtb8-fill-0" offset="0%" stop-color="#ca9733"/><stop id="eeaJGK8nXtb8-fill-1" offset="32.5%" stop-color="#f0be66"/><stop id="eeaJGK8nXtb8-fill-2" offset="59.5%" stop-color="#985a21"/><stop id="eeaJGK8nXtb8-fill-3" offset="92%" stop-color="#efac48"/></linearGradient><linearGradient id="eeaJGK8nXtb11-fill" x1="103.752" y1="3.09709" x2="108.948" y2="79.6461" spreadMethod="pad" gradientUnits="userSpaceOnUse" gradientTransform="translate(0 0)"><stop id="eeaJGK8nXtb11-fill-0" offset="0%" stop-color="#ca9733"/><stop id="eeaJGK8nXtb11-fill-1" offset="32.5%" stop-color="#f0be66"/><stop id="eeaJGK8nXtb11-fill-2" offset="59.5%" stop-color="#985a21"/><stop id="eeaJGK8nXtb11-fill-3" offset="92%" stop-color="#efac48"/></linearGradient><filter id="eeaJGK8nXtb17-filter" x="-150%" y="-150%" width="400%" height="400%"><feGaussianBlur id="eeaJGK8nXtb17-filter-inner-shadow-0-blur" in="SourceAlpha" stdDeviation="0.5,0.5"/><feOffset id="eeaJGK8nXtb17-filter-inner-shadow-0-offset" dx="0" dy="3" result="tmp"/><feComposite id="eeaJGK8nXtb17-filter-inner-shadow-0-composite" operator="arithmetic" k2="-1" k3="1" in2="SourceGraphic"/><feColorMatrix id="eeaJGK8nXtb17-filter-inner-shadow-0-color-matrix" type="matrix" values="0 0 0 0 1 0 0 0 0 0.882353 0 0 0 0 0.721569 0 0 0 1 0"/><feMerge id="eeaJGK8nXtb17-filter-inner-shadow-0-merge" result="result"><feMergeNode id="eeaJGK8nXtb17-filter-inner-shadow-0-merge-node-1" in="SourceGraphic"/><feMergeNode id="eeaJGK8nXtb17-filter-inner-shadow-0-merge-node-2"/></feMerge><feGaussianBlur id="eeaJGK8nXtb17-filter-inner-shadow-1-blur" in="result" stdDeviation="1,1"/><feOffset id="eeaJGK8nXtb17-filter-inner-shadow-1-offset" dx="-2" dy="-1" result="tmp"/><feComposite id="eeaJGK8nXtb17-filter-inner-shadow-1-composite" operator="arithmetic" k2="-1" k3="1" in2="SourceGraphic"/><feColorMatrix id="eeaJGK8nXtb17-filter-inner-shadow-1-color-matrix" type="matrix" values="0 0 0 0 0.792157 0 0 0 0 0.619608 0 0 0 0 0.364706 0 0 0 1 0"/><feMerge id="eeaJGK8nXtb17-filter-inner-shadow-1-merge" result="result"><feMergeNode id="eeaJGK8nXtb17-filter-inner-shadow-1-merge-node-1" in="result"/><feMergeNode id="eeaJGK8nXtb17-filter-inner-shadow-1-merge-node-2"/></feMerge><feGaussianBlur id="eeaJGK8nXtb17-filter-drop-shadow-0-blur" in="result" stdDeviation="2,2"/><feOffset id="eeaJGK8nXtb17-filter-drop-shadow-0-offset" dx="0" dy="4" result="tmp"/><feFlood id="eeaJGK8nXtb17-filter-drop-shadow-0-flood" flood-color="#000"/><feComposite id="eeaJGK8nXtb17-filter-drop-shadow-0-composite" operator="in" in2="tmp"/><feMerge id="eeaJGK8nXtb17-filter-drop-shadow-0-merge" result="result"><feMergeNode id="eeaJGK8nXtb17-filter-drop-shadow-0-merge-node-1"/><feMergeNode id="eeaJGK8nXtb17-filter-drop-shadow-0-merge-node-2" in="result"/></feMerge></filter><linearGradient id="eeaJGK8nXtb18-fill" x1="107.752" y1="3.09709" x2="112.948" y2="79.6461" spreadMethod="pad" gradientUnits="userSpaceOnUse" gradientTransform="translate(0 0)"><stop id="eeaJGK8nXtb18-fill-0" offset="0%" stop-color="#ca9733"/><stop id="eeaJGK8nXtb18-fill-1" offset="32.5%" stop-color="#f0be66"/><stop id="eeaJGK8nXtb18-fill-2" offset="59.5%" stop-color="#985a21"/><stop id="eeaJGK8nXtb18-fill-3" offset="92%" stop-color="#efac48"/></linearGradient><filter id="eeaJGK8nXtb21-filter" x="-150%" y="-150%" width="400%" height="400%"><feGaussianBlur id="eeaJGK8nXtb21-filter-inner-shadow-0-blur" in="SourceAlpha" stdDeviation="0.5,0.5"/><feOffset id="eeaJGK8nXtb21-filter-inner-shadow-0-offset" dx="0" dy="3" result="tmp"/><feComposite id="eeaJGK8nXtb21-filter-inner-shadow-0-composite" operator="arithmetic" k2="-1" k3="1" in2="SourceGraphic"/><feColorMatrix id="eeaJGK8nXtb21-filter-inner-shadow-0-color-matrix" type="matrix" values="0 0 0 0 1 0 0 0 0 0.882353 0 0 0 0 0.721569 0 0 0 1 0"/><feMerge id="eeaJGK8nXtb21-filter-inner-shadow-0-merge" result="result"><feMergeNode id="eeaJGK8nXtb21-filter-inner-shadow-0-merge-node-1" in="SourceGraphic"/><feMergeNode id="eeaJGK8nXtb21-filter-inner-shadow-0-merge-node-2"/></feMerge><feGaussianBlur id="eeaJGK8nXtb21-filter-inner-shadow-1-blur" in="result" stdDeviation="1,1"/><feOffset id="eeaJGK8nXtb21-filter-inner-shadow-1-offset" dx="-2" dy="-1" result="tmp"/><feComposite id="eeaJGK8nXtb21-filter-inner-shadow-1-composite" operator="arithmetic" k2="-1" k3="1" in2="SourceGraphic"/><feColorMatrix id="eeaJGK8nXtb21-filter-inner-shadow-1-color-matrix" type="matrix" values="0 0 0 0 0.792157 0 0 0 0 0.619608 0 0 0 0 0.364706 0 0 0 1 0"/><feMerge id="eeaJGK8nXtb21-filter-inner-shadow-1-merge" result="result"><feMergeNode id="eeaJGK8nXtb21-filter-inner-shadow-1-merge-node-1" in="result"/><feMergeNode id="eeaJGK8nXtb21-filter-inner-shadow-1-merge-node-2"/></feMerge><feGaussianBlur id="eeaJGK8nXtb21-filter-drop-shadow-0-blur" in="result" stdDeviation="2,2"/><feOffset id="eeaJGK8nXtb21-filter-drop-shadow-0-offset" dx="0" dy="4" result="tmp"/><feFlood id="eeaJGK8nXtb21-filter-drop-shadow-0-flood" flood-color="#000"/><feComposite id="eeaJGK8nXtb21-filter-drop-shadow-0-composite" operator="in" in2="tmp"/><feMerge id="eeaJGK8nXtb21-filter-drop-shadow-0-merge" result="result"><feMergeNode id="eeaJGK8nXtb21-filter-drop-shadow-0-merge-node-1"/><feMergeNode id="eeaJGK8nXtb21-filter-drop-shadow-0-merge-node-2" in="result"/></feMerge></filter><filter id="eeaJGK8nXtb22-filter" x="-150%" y="-150%" width="400%" height="400%"><feGaussianBlur id="eeaJGK8nXtb22-filter-inner-shadow-0-blur" in="SourceAlpha" stdDeviation="0.25,0.25"/><feOffset id="eeaJGK8nXtb22-filter-inner-shadow-0-offset" dx="0" dy="1" result="tmp"/><feComposite id="eeaJGK8nXtb22-filter-inner-shadow-0-composite" operator="arithmetic" k2="-1" k3="1" in2="SourceGraphic"/><feColorMatrix id="eeaJGK8nXtb22-filter-inner-shadow-0-color-matrix" type="matrix" values="0 0 0 0 1 0 0 0 0 0.882353 0 0 0 0 0.721569 0 0 0 1 0"/><feMerge id="eeaJGK8nXtb22-filter-inner-shadow-0-merge" result="result"><feMergeNode id="eeaJGK8nXtb22-filter-inner-shadow-0-merge-node-1" in="SourceGraphic"/><feMergeNode id="eeaJGK8nXtb22-filter-inner-shadow-0-merge-node-2"/></feMerge><feGaussianBlur id="eeaJGK8nXtb22-filter-inner-shadow-1-blur" in="result" stdDeviation="0.25,0.25"/><feOffset id="eeaJGK8nXtb22-filter-inner-shadow-1-offset" dx="0" dy="-1" result="tmp"/><feComposite id="eeaJGK8nXtb22-filter-inner-shadow-1-composite" operator="arithmetic" k2="-1" k3="1" in2="SourceGraphic"/><feColorMatrix id="eeaJGK8nXtb22-filter-inner-shadow-1-color-matrix" type="matrix" values="0 0 0 0 0.792157 0 0 0 0 0.619608 0 0 0 0 0.364706 0 0 0 1 0"/><feMerge id="eeaJGK8nXtb22-filter-inner-shadow-1-merge" result="result"><feMergeNode id="eeaJGK8nXtb22-filter-inner-shadow-1-merge-node-1" in="result"/><feMergeNode id="eeaJGK8nXtb22-filter-inner-shadow-1-merge-node-2"/></feMerge></filter><linearGradient id="eeaJGK8nXtb24-fill" x1="76.9458" y1="1.93022" x2="156.518" y2="249.865" spreadMethod="pad" gradientUnits="userSpaceOnUse" gradientTransform="translate(0 0)"><stop id="eeaJGK8nXtb24-fill-0" offset="0%" stop-color="#ca9733"/><stop id="eeaJGK8nXtb24-fill-1" offset="32.5%" stop-color="#f0be66"/><stop id="eeaJGK8nXtb24-fill-2" offset="59.5%" stop-color="#985a21"/><stop id="eeaJGK8nXtb24-fill-3" offset="92%" stop-color="#efac48"/></linearGradient><linearGradient id="eeaJGK8nXtb26-fill" x1="76.9458" y1="1.93022" x2="156.518" y2="249.865" spreadMethod="pad" gradientUnits="userSpaceOnUse" gradientTransform="translate(0 0)"><stop id="eeaJGK8nXtb26-fill-0" offset="0%" stop-color="#ca9733"/><stop id="eeaJGK8nXtb26-fill-1" offset="32.5%" stop-color="#f0be66"/><stop id="eeaJGK8nXtb26-fill-2" offset="59.5%" stop-color="#985a21"/><stop id="eeaJGK8nXtb26-fill-3" offset="92%" stop-color="#efac48"/></linearGradient><linearGradient id="eeaJGK8nXtb28-fill" x1="76.9458" y1="1.93022" x2="156.518" y2="249.865" spreadMethod="pad" gradientUnits="userSpaceOnUse" gradientTransform="translate(0 0)"><stop id="eeaJGK8nXtb28-fill-0" offset="0%" stop-color="#ca9733"/><stop id="eeaJGK8nXtb28-fill-1" offset="32.5%" stop-color="#f0be66"/><stop id="eeaJGK8nXtb28-fill-2" offset="59.5%" stop-color="#985a21"/><stop id="eeaJGK8nXtb28-fill-3" offset="92%" stop-color="#efac48"/></linearGradient><filter id="eeaJGK8nXtb30-filter" x="-150%" y="-150%" width="400%" height="400%"><feGaussianBlur id="eeaJGK8nXtb30-filter-drop-shadow-0-blur" in="SourceAlpha" stdDeviation="2,2"/><feOffset id="eeaJGK8nXtb30-filter-drop-shadow-0-offset" dx="0" dy="4" result="tmp"/><feFlood id="eeaJGK8nXtb30-filter-drop-shadow-0-flood" flood-color="#000"/><feComposite id="eeaJGK8nXtb30-filter-drop-shadow-0-composite" operator="in" in2="tmp"/><feMerge id="eeaJGK8nXtb30-filter-drop-shadow-0-merge" result="result"><feMergeNode id="eeaJGK8nXtb30-filter-drop-shadow-0-merge-node-1"/><feMergeNode id="eeaJGK8nXtb30-filter-drop-shadow-0-merge-node-2" in="SourceGraphic"/></feMerge></filter><filter id="eeaJGK8nXtb31-filter" x="-150%" y="-150%" width="400%" height="400%"><feGaussianBlur id="eeaJGK8nXtb31-filter-inner-shadow-0-blur" in="SourceAlpha" stdDeviation="0.5,0.5"/><feOffset id="eeaJGK8nXtb31-filter-inner-shadow-0-offset" dx="0" dy="3" result="tmp"/><feComposite id="eeaJGK8nXtb31-filter-inner-shadow-0-composite" operator="arithmetic" k2="-1" k3="1" in2="SourceGraphic"/><feColorMatrix id="eeaJGK8nXtb31-filter-inner-shadow-0-color-matrix" type="matrix" values="0 0 0 0 1 0 0 0 0 0.882353 0 0 0 0 0.721569 0 0 0 1 0"/><feMerge id="eeaJGK8nXtb31-filter-inner-shadow-0-merge" result="result"><feMergeNode id="eeaJGK8nXtb31-filter-inner-shadow-0-merge-node-1" in="SourceGraphic"/><feMergeNode id="eeaJGK8nXtb31-filter-inner-shadow-0-merge-node-2"/></feMerge><feGaussianBlur id="eeaJGK8nXtb31-filter-inner-shadow-1-blur" in="result" stdDeviation="1.5,1.5"/><feOffset id="eeaJGK8nXtb31-filter-inner-shadow-1-offset" dx="0" dy="-1" result="tmp"/><feComposite id="eeaJGK8nXtb31-filter-inner-shadow-1-composite" operator="arithmetic" k2="-1" k3="1" in2="SourceGraphic"/><feColorMatrix id="eeaJGK8nXtb31-filter-inner-shadow-1-color-matrix" type="matrix" values="0 0 0 0 0.792157 0 0 0 0 0.619608 0 0 0 0 0.364706 0 0 0 1 0"/><feMerge id="eeaJGK8nXtb31-filter-inner-shadow-1-merge" result="result"><feMergeNode id="eeaJGK8nXtb31-filter-inner-shadow-1-merge-node-1" in="result"/><feMergeNode id="eeaJGK8nXtb31-filter-inner-shadow-1-merge-node-2"/></feMerge></filter><filter id="eeaJGK8nXtb35-filter" x="-150%" y="-150%" width="400%" height="400%"><feGaussianBlur id="eeaJGK8nXtb35-filter-inner-shadow-0-blur" in="SourceAlpha" stdDeviation="0.5,0.5"/><feOffset id="eeaJGK8nXtb35-filter-inner-shadow-0-offset" dx="0" dy="3" result="tmp"/><feComposite id="eeaJGK8nXtb35-filter-inner-shadow-0-composite" operator="arithmetic" k2="-1" k3="1" in2="SourceGraphic"/><feColorMatrix id="eeaJGK8nXtb35-filter-inner-shadow-0-color-matrix" type="matrix" values="0 0 0 0 1 0 0 0 0 0.882353 0 0 0 0 0.721569 0 0 0 1 0"/><feMerge id="eeaJGK8nXtb35-filter-inner-shadow-0-merge" result="result"><feMergeNode id="eeaJGK8nXtb35-filter-inner-shadow-0-merge-node-1" in="SourceGraphic"/><feMergeNode id="eeaJGK8nXtb35-filter-inner-shadow-0-merge-node-2"/></feMerge><feGaussianBlur id="eeaJGK8nXtb35-filter-inner-shadow-1-blur" in="result" stdDeviation="1.5,1.5"/><feOffset id="eeaJGK8nXtb35-filter-inner-shadow-1-offset" dx="0" dy="-1" result="tmp"/><feComposite id="eeaJGK8nXtb35-filter-inner-shadow-1-composite" operator="arithmetic" k2="-1" k3="1" in2="SourceGraphic"/><feColorMatrix id="eeaJGK8nXtb35-filter-inner-shadow-1-color-matrix" type="matrix" values="0 0 0 0 0.792157 0 0 0 0 0.619608 0 0 0 0 0.364706 0 0 0 1 0"/><feMerge id="eeaJGK8nXtb35-filter-inner-shadow-1-merge" result="result"><feMergeNode id="eeaJGK8nXtb35-filter-inner-shadow-1-merge-node-1" in="result"/><feMergeNode id="eeaJGK8nXtb35-filter-inner-shadow-1-merge-node-2"/></feMerge></filter></defs><g transform="translate(1.053797 8.079091)"><path d="M9.56479,63.104c-.31883-.9565-.79707-1.8599-1.43472-2.7101-.53138-.9565-1.11589-1.7535-1.75355-2.3912-.53137-.7439-1.11589-1.4347-1.75354-2.0724-.53138-.6376-1.11589-1.169-1.75354-1.5941-.53138-.5314-1.00962-.9565-1.43472-1.2753-.31883-.3189-.637655-.5846-.956481-.7971C0.159413,52.0512,0,51.9449,0,51.9449c0-.1062.053138-.2125.159413-.3188c0-.2125.053138-.3719.159413-.4782h37.462074c.1063.2125.2126.4782.3188.797-.1062,0-.2657.1063-.4782.3189-.2126.2125-.5314.4782-.9565.7971s-.9033.6907-1.4347,1.1159c-.4251.4251-.9565.9564-1.5941,1.5941-.5314.5314-1.0628,1.0628-1.5942,1.5941-2.9757,3.5072-3.8259,7.4394-2.5506,11.7967L55.1569,156.202L76.5183,61.5098c.4251-2.1255.2125-4.0385-.6377-5.7389s-2.1786-2.9757-3.9853-3.826c0,0-.0531,0-.1594,0c.1063-.3188.2125-.5845.3188-.797h17.0572c.1063.3188.2126.5845.3188.797-6.0577,5.2076-9.8836,11.4779-11.4777,18.811L57.2293,162.738h-18.0137L10.3619,65.3358c-.2126-.9565-.47829-1.7005-.79711-2.2318Z"/><path d="M9.56479,63.104c-.31883-.9565-.79707-1.8599-1.43472-2.7101-.53138-.9565-1.11589-1.7535-1.75355-2.3912-.53137-.7439-1.11589-1.4347-1.75354-2.0724-.53138-.6376-1.11589-1.169-1.75354-1.5941-.53138-.5314-1.00962-.9565-1.43472-1.2753-.31883-.3189-.637655-.5846-.956481-.7971C0.159413,52.0512,0,51.9449,0,51.9449c0-.1062.053138-.2125.159413-.3188c0-.2125.053138-.3719.159413-.4782h37.462074c.1063.2125.2126.4782.3188.797-.1062,0-.2657.1063-.4782.3189-.2126.2125-.5314.4782-.9565.7971s-.9033.6907-1.4347,1.1159c-.4251.4251-.9565.9564-1.5941,1.5941-.5314.5314-1.0628,1.0628-1.5942,1.5941-2.9757,3.5072-3.8259,7.4394-2.5506,11.7967L55.1569,156.202L76.5183,61.5098c.4251-2.1255.2125-4.0385-.6377-5.7389s-2.1786-2.9757-3.9853-3.826c0,0-.0531,0-.1594,0c.1063-.3188.2125-.5845.3188-.797h17.0572c.1063.3188.2126.5845.3188.797-6.0577,5.2076-9.8836,11.4779-11.4777,18.811L57.2293,162.738h-18.0137L10.3619,65.3358c-.2126-.9565-.47829-1.7005-.79711-2.2318Z" fill="url(#eeaJGK8nXtb4-fill)"/><path d="M91.6127,161.941c1.5941-.85,2.9757-1.754,4.1447-2.71c1.2754-1.063,2.2318-2.285,2.8695-3.667.7439-1.488,1.3284-2.763,1.7531-3.826.532-1.062.851-2.603.957-4.623.212-2.019.319-3.454.319-4.304.106-.956.106-2.71,0-5.261c0-2.55,0-4.197,0-4.941v-52.1275c.106-1.3816.106-2.7632,0-4.1447c0-1.4879-.053-2.9226-.16-4.3042c0-1.3816-.106-2.7632-.319-4.1448-.106-1.3816-.318-2.6569-.637-3.8259-.213-1.2754-.5847-2.4975-1.1161-3.6666-.5313-1.169-1.169-2.2318-1.9129-3.1883-.6377-1.0627-1.4879-2.0192-2.5506-2.8694-.9565-.9565-2.0724-1.7536-3.3477-2.3912l.3188-.7971h37.4625l.318.7971c-2.019.9564-3.719,2.1786-5.101,3.6665-1.275,1.4879-2.285,2.9226-3.029,4.3042-.637,1.3816-1.116,3.1883-1.434,5.4201-.319,2.1255-.532,3.9322-.638,5.4201c0,1.4878.053,3.5071.159,6.0577c0,3.826,0,30.726,0,52.057c0,19.98,0,14.045,0,14.577.107,4.357.851,8.077,2.232,11.159c1.488,3.082,4.092,5.526,7.811,7.333l-.318.797h-37.4625l-.3188-.797Z"/><path d="M91.6127,161.941c1.5941-.85,2.9757-1.754,4.1447-2.71c1.2754-1.063,2.2318-2.285,2.8695-3.667.7439-1.488,1.3284-2.763,1.7531-3.826.532-1.062.851-2.603.957-4.623.212-2.019.319-3.454.319-4.304.106-.956.106-2.71,0-5.261c0-2.55,0-4.197,0-4.941v-52.1275c.106-1.3816.106-2.7632,0-4.1447c0-1.4879-.053-2.9226-.16-4.3042c0-1.3816-.106-2.7632-.319-4.1448-.106-1.3816-.318-2.6569-.637-3.8259-.213-1.2754-.5847-2.4975-1.1161-3.6666-.5313-1.169-1.169-2.2318-1.9129-3.1883-.6377-1.0627-1.4879-2.0192-2.5506-2.8694-.9565-.9565-2.0724-1.7536-3.3477-2.3912l.3188-.7971h37.4625l.318.7971c-2.019.9564-3.719,2.1786-5.101,3.6665-1.275,1.4879-2.285,2.9226-3.029,4.3042-.637,1.3816-1.116,3.1883-1.434,5.4201-.319,2.1255-.532,3.9322-.638,5.4201c0,1.4878.053,3.5071.159,6.0577c0,3.826,0,30.726,0,52.057c0,19.98,0,14.045,0,14.577.107,4.357.851,8.077,2.232,11.159c1.488,3.082,4.092,5.526,7.811,7.333l-.318.797h-37.4625l-.3188-.797Z" fill="url(#eeaJGK8nXtb6-fill)"/><path d="M135.517,51.9449c-.212-.1062-.212-.2656,0-.4782.107-.1063.16-.2125.16-.3188h52.606c8.715,0,16.154,3.082,22.318,9.246s9.246,13.6034,9.246,22.318c.425,9.3523-2.073,17.0574-7.493,23.1151-5.313,6.058-12.646,9.14-21.999,9.246-3.613.213-6.217.425-7.811.638-1.594.212-3.613.744-6.058,1.594-2.338.85-4.304,2.019-5.898,3.507-4.676,4.676-7.014,11.69-7.014,21.043v3.666c0,3.826,1.116,7.227,3.348,10.203c2.231,2.869,4.463,4.942,6.695,6.217-.106.106-.159.266-.159.478c0,.106-.054.213-.16.319h-37.462c0-.106-.106-.213-.319-.319-.212-.212-.212-.372,0-.478c1.594-.85,2.976-1.754,4.145-2.71c1.275-1.063,2.232-2.285,2.869-3.667.744-1.488,1.329-2.763,1.754-3.826.531-1.062.85-2.603.957-4.623.212-2.125.318-3.613.318-4.463.107-.85.107-2.551,0-5.102c0-2.55,0-4.197,0-4.941v-52.1289c0-1.3816,0-2.7632,0-4.1447c0-1.4879-.053-2.9226-.159-4.3042c0-1.3816-.106-2.7632-.319-4.1448-.106-1.3816-.319-2.6569-.638-3.826-.212-1.2753-.584-2.4974-1.115-3.6665-.532-1.169-1.169-2.2318-1.913-3.1883-.638-1.0627-1.488-2.0192-2.551-2.8694-.956-.9565-2.072-1.7536-3.348-2.3913Zm46.23,2.5507c-4.995,0-9.299,1.8067-12.912,5.4201-3.507,3.5071-5.261,7.8113-5.261,12.9125v53.2448c3.507-6.058,11-11.159,22.477-15.304c9.459-3.401,14.773-9.884,15.942-19.4487c2.125-15.6226-.691-26.5691-8.449-32.8394-3.401-2.6569-7.333-3.9853-11.797-3.9853Z"/><path d="M135.517,51.9449c-.212-.1062-.212-.2656,0-.4782.107-.1063.16-.2125.16-.3188h52.606c8.715,0,16.154,3.082,22.318,9.246s9.246,13.6034,9.246,22.318c.425,9.3523-2.073,17.0574-7.493,23.1151-5.313,6.058-12.646,9.14-21.999,9.246-3.613.213-6.217.425-7.811.638-1.594.212-3.613.744-6.058,1.594-2.338.85-4.304,2.019-5.898,3.507-4.676,4.676-7.014,11.69-7.014,21.043v3.666c0,3.826,1.116,7.227,3.348,10.203c2.231,2.869,4.463,4.942,6.695,6.217-.106.106-.159.266-.159.478c0,.106-.054.213-.16.319h-37.462c0-.106-.106-.213-.319-.319-.212-.212-.212-.372,0-.478c1.594-.85,2.976-1.754,4.145-2.71c1.275-1.063,2.232-2.285,2.869-3.667.744-1.488,1.329-2.763,1.754-3.826.531-1.062.85-2.603.957-4.623.212-2.125.318-3.613.318-4.463.107-.85.107-2.551,0-5.102c0-2.55,0-4.197,0-4.941v-52.1289c0-1.3816,0-2.7632,0-4.1447c0-1.4879-.053-2.9226-.159-4.3042c0-1.3816-.106-2.7632-.319-4.1448-.106-1.3816-.319-2.6569-.638-3.826-.212-1.2753-.584-2.4974-1.115-3.6665-.532-1.169-1.169-2.2318-1.913-3.1883-.638-1.0627-1.488-2.0192-2.551-2.8694-.956-.9565-2.072-1.7536-3.348-2.3913Zm46.23,2.5507c-4.995,0-9.299,1.8067-12.912,5.4201-3.507,3.5071-5.261,7.8113-5.261,12.9125v53.2448c3.507-6.058,11-11.159,22.477-15.304c9.459-3.401,14.773-9.884,15.942-19.4487c2.125-15.6226-.691-26.5691-8.449-32.8394-3.401-2.6569-7.333-3.9853-11.797-3.9853Z" fill="url(#eeaJGK8nXtb8-fill)"/><g clip-path="url(#eeaJGK8nXtb12)"><g><path d="M135.665,17.5058c-1.185,0-2.154.9164-2.154,2.0502c0,.4993.208.9458.531,1.3041-2.551,1.8681-7.653,5.1872-11.864,5.4574-.632-3.325.231-7.5722.867-10.0042.18.047.365.1058.563.1058c1.195,0,2.154-.9165,2.154-2.0502c0-1.1338-.964-2.0502-2.154-2.0502s-2.154.9164-2.154,2.0502c0,.7578.457,1.3922,1.102,1.7447-2.071,3.1134-4.797,5.4221-7.066,6.5676-3.386-4.6584-5.129-12.81214-5.475-18.59259c1.158-.04112,2.089-.92816,2.089-2.03843s-.968-2.05018-2.163-2.05018-2.154.916412-2.154,2.05018.927,1.99731,2.089,2.03843c-.341,5.78632-2.089,13.93419-5.484,18.59259-2.26-1.1455-4.9861-3.4542-7.0572-6.5676.6458-.3525,1.1025-.9869,1.1025-1.7447c0-1.1338-.9687-2.0502-2.1633-2.0502-1.1947,0-2.1541.9164-2.1541,2.0502c0,1.1337.9594,2.0502,2.1541,2.0502.1983,0,.3828-.0588.5719-.1058.6365,2.432,1.4991,6.6792.8672,10.0042-4.2159-.2702-9.3082-3.5893-11.8636-5.4574.3137-.3583.5305-.8048.5305-1.3041c0-1.1338-.9687-2.0502-2.1633-2.0502-1.1947,0-2.1541.9164-2.1541,2.0502s.9687,2.0443,2.1541,2.0443c.512,0,.9594-.1938,1.3238-.4699c7.8552,9.5342,8.9715,22.2347,8.9715,22.2347c5.3505-1.0457,15.424-1.2278,15.424-1.2278s10.083.1821,15.443,1.2278c0,0,1.112-12.6947,8.963-22.2347.364.2819.811.4699,1.319.4699c1.185,0,2.154-.9164,2.154-2.0443s-.969-2.0502-2.154-2.0502h.004Z" fill="url(#eeaJGK8nXtb11-fill)"/></g><clipPath id="eeaJGK8nXtb12"><rect width="55.7476" height="43.3592" rx="0" ry="0" transform="translate(82.0728 0)" fill="#fff"/></clipPath></g></g><g id="eeaJGK8nXtb14" transform="translate(-3.090249 8.153097)" opacity="0"><g clip-path="url(#eeaJGK8nXtb19)"><g><g filter="url(#eeaJGK8nXtb17-filter)"><path d="M139.665,17.5058c-1.185,0-2.154.9164-2.154,2.0502c0,.4993.208.9458.531,1.3041-2.551,1.8681-7.653,5.1872-11.864,5.4574-.632-3.325.231-7.5722.867-10.0042.18.047.365.1058.563.1058c1.195,0,2.154-.9165,2.154-2.0502c0-1.1338-.964-2.0502-2.154-2.0502s-2.154.9164-2.154,2.0502c0,.7578.457,1.3922,1.102,1.7447-2.071,3.1134-4.797,5.4221-7.066,6.5676-3.386-4.6584-5.129-12.81214-5.475-18.59259c1.158-.04112,2.089-.92816,2.089-2.03843s-.968-2.05018-2.163-2.05018-2.154.916412-2.154,2.05018.927,1.99731,2.089,2.03843c-.341,5.78632-2.089,13.93419-5.484,18.59259-2.26-1.1455-4.986-3.4542-7.057-6.5676.646-.3525,1.102-.9869,1.102-1.7447c0-1.1338-.968-2.0502-2.163-2.0502-1.1947,0-2.1541.9164-2.1541,2.0502c0,1.1337.9594,2.0502,2.1541,2.0502.198,0,.383-.0588.572-.1058.636,2.432,1.499,6.6792.867,10.0042-4.2158-.2702-9.3081-3.5893-11.8635-5.4574.3137-.3583.5305-.8048.5305-1.3041c0-1.1338-.9687-2.0502-2.1633-2.0502-1.1947,0-2.1541.9164-2.1541,2.0502s.9686,2.0443,2.1541,2.0443c.512,0,.9594-.1938,1.3238-.4699c7.8552,9.5342,8.9714,22.2347,8.9714,22.2347c5.3511-1.0457,15.4241-1.2278,15.4241-1.2278s10.083.1821,15.443,1.2278c0,0,1.112-12.6947,8.963-22.2347.364.2819.811.4699,1.319.4699c1.185,0,2.154-.9164,2.154-2.0443s-.969-2.0502-2.154-2.0502h.004Z" fill="url(#eeaJGK8nXtb18-fill)"/></g></g><clipPath id="eeaJGK8nXtb19"><rect width="55.7476" height="43.3592" rx="0" ry="0" transform="translate(86.0728 0)" fill="#fff"/></clipPath></g><g filter="url(#eeaJGK8nXtb21-filter)"><g filter="url(#eeaJGK8nXtb22-filter)"><path d="M13.5648,62.9561c-.3188-.9565-.7971-1.8598-1.4347-2.7101-.5314-.9564-1.1159-1.7535-1.7536-2.3912-.53135-.7439-1.11587-1.4347-1.75352-2.0724-.53138-.6376-1.11589-1.169-1.75354-1.5941-.53138-.5314-1.00962-.9565-1.43472-1.2753-.31883-.3189-.63765-.5845-.95648-.7971s-.47824-.3188-.47824-.3188c0-.1063.05314-.2126.15941-.3189c0-.2125.05314-.3719.15942-.4782h37.46207c.1063.2126.2126.4782.3188.7971-.1062,0-.2657.1062-.4782.3188s-.5314.4782-.9565.7971-.9033.6908-1.4347,1.1159c-.4251.4251-.9565.9565-1.5941,1.5941-.5314.5314-1.0628,1.0628-1.5942,1.5942-2.9757,3.5071-3.8259,7.4393-2.5506,11.7966L59.1569,156.054L80.5183,61.3619c.4251-2.1255.2125-4.0385-.6377-5.7389s-2.1786-2.9757-3.9853-3.8259c0,0-.0531,0-.1594,0c.1063-.3189.2125-.5845.3188-.7971h17.0572c.1063.3188.2126.5845.3188.7971C87.373,57.0046,83.5471,63.2749,81.953,70.608L61.2293,162.59h-18.0137L14.3619,65.1879c-.2126-.9565-.4783-1.7004-.7971-2.2318Z"/><path d="M13.5648,62.9561c-.3188-.9565-.7971-1.8598-1.4347-2.7101-.5314-.9564-1.1159-1.7535-1.7536-2.3912-.53135-.7439-1.11587-1.4347-1.75352-2.0724-.53138-.6376-1.11589-1.169-1.75354-1.5941-.53138-.5314-1.00962-.9565-1.43472-1.2753-.31883-.3189-.63765-.5845-.95648-.7971s-.47824-.3188-.47824-.3188c0-.1063.05314-.2126.15941-.3189c0-.2125.05314-.3719.15942-.4782h37.46207c.1063.2126.2126.4782.3188.7971-.1062,0-.2657.1062-.4782.3188s-.5314.4782-.9565.7971-.9033.6908-1.4347,1.1159c-.4251.4251-.9565.9565-1.5941,1.5941-.5314.5314-1.0628,1.0628-1.5942,1.5942-2.9757,3.5071-3.8259,7.4393-2.5506,11.7966L59.1569,156.054L80.5183,61.3619c.4251-2.1255.2125-4.0385-.6377-5.7389s-2.1786-2.9757-3.9853-3.8259c0,0-.0531,0-.1594,0c.1063-.3189.2125-.5845.3188-.7971h17.0572c.1063.3188.2126.5845.3188.7971C87.373,57.0046,83.5471,63.2749,81.953,70.608L61.2293,162.59h-18.0137L14.3619,65.1879c-.2126-.9565-.4783-1.7004-.7971-2.2318Z" fill="url(#eeaJGK8nXtb24-fill)"/><path d="M95.6127,161.793c1.5941-.85,2.9757-1.754,4.1447-2.71c1.2756-1.063,2.2316-2.285,2.8696-3.667.744-1.487,1.328-2.763,1.753-3.826.532-1.062.851-2.603.957-4.623.212-2.019.319-3.454.319-4.304.106-.956.106-2.71,0-5.26c0-2.551,0-4.198,0-4.942v-52.1273c.106-1.3816.106-2.7632,0-4.1448c0-1.4879-.053-2.9226-.16-4.3042c0-1.3816-.106-2.7632-.319-4.1448-.106-1.3816-.318-2.6569-.637-3.8259-.213-1.2753-.585-2.4975-1.116-3.6666-.531-1.169-1.169-2.2318-1.913-3.1882-.638-1.0628-1.488-2.0193-2.5506-2.8695-.9565-.9565-2.0724-1.7536-3.3477-2.3912l.3188-.7971h37.4625l.318.7971c-2.019.9565-3.719,2.1786-5.101,3.6665-1.275,1.4879-2.285,2.9226-3.029,4.3042-.637,1.3816-1.116,3.1883-1.434,5.4201-.319,2.1255-.532,3.9322-.638,5.4201c0,1.4878.053,3.5071.159,6.0577c0,3.826,0,30.7259,0,52.0569c0,19.98,0,14.046,0,14.577.107,4.357.851,8.077,2.232,11.159c1.488,3.082,4.092,5.526,7.811,7.333l-.318.797h-37.4625l-.3188-.797Z"/><path d="M95.6127,161.793c1.5941-.85,2.9757-1.754,4.1447-2.71c1.2756-1.063,2.2316-2.285,2.8696-3.667.744-1.487,1.328-2.763,1.753-3.826.532-1.062.851-2.603.957-4.623.212-2.019.319-3.454.319-4.304.106-.956.106-2.71,0-5.26c0-2.551,0-4.198,0-4.942v-52.1273c.106-1.3816.106-2.7632,0-4.1448c0-1.4879-.053-2.9226-.16-4.3042c0-1.3816-.106-2.7632-.319-4.1448-.106-1.3816-.318-2.6569-.637-3.8259-.213-1.2753-.585-2.4975-1.116-3.6666-.531-1.169-1.169-2.2318-1.913-3.1882-.638-1.0628-1.488-2.0193-2.5506-2.8695-.9565-.9565-2.0724-1.7536-3.3477-2.3912l.3188-.7971h37.4625l.318.7971c-2.019.9565-3.719,2.1786-5.101,3.6665-1.275,1.4879-2.285,2.9226-3.029,4.3042-.637,1.3816-1.116,3.1883-1.434,5.4201-.319,2.1255-.532,3.9322-.638,5.4201c0,1.4878.053,3.5071.159,6.0577c0,3.826,0,30.7259,0,52.0569c0,19.98,0,14.046,0,14.577.107,4.357.851,8.077,2.232,11.159c1.488,3.082,4.092,5.526,7.811,7.333l-.318.797h-37.4625l-.3188-.797Z" fill="url(#eeaJGK8nXtb26-fill)"/><path d="M139.517,51.7971c-.212-.1063-.212-.2657,0-.4783.107-.1062.16-.2125.16-.3188h52.606c8.715,0,16.154,3.082,22.318,9.246c6.164,6.1641,9.246,13.6034,9.246,22.3181.425,9.3523-2.073,17.0573-7.493,23.1149-5.313,6.058-12.646,9.14-21.999,9.246-3.613.213-6.217.425-7.811.638-1.594.212-3.613.744-6.058,1.594-2.338.85-4.304,2.019-5.898,3.507-4.676,4.676-7.014,11.69-7.014,21.043v3.666c0,3.826,1.116,7.227,3.348,10.203c2.231,2.869,4.463,4.942,6.695,6.217-.106.106-.159.266-.159.478c0,.107-.054.213-.16.319h-37.462c0-.106-.106-.212-.319-.319-.212-.212-.212-.372,0-.478c1.594-.85,2.976-1.754,4.145-2.71c1.275-1.063,2.232-2.285,2.869-3.667.744-1.487,1.329-2.763,1.754-3.826.531-1.062.85-2.603.956-4.623.213-2.125.319-3.613.319-4.463.107-.85.107-2.551,0-5.101c0-2.551,0-4.198,0-4.942v-52.1287c0-1.3816,0-2.7632,0-4.1448c0-1.4879-.053-2.9226-.159-4.3042c0-1.3816-.106-2.7632-.319-4.1448-.106-1.3816-.319-2.6569-.638-3.8259-.212-1.2753-.584-2.4975-1.115-3.6666-.532-1.169-1.169-2.2318-1.913-3.1883-.638-1.0627-1.488-2.0192-2.551-2.8694-.956-.9565-2.072-1.7536-3.348-2.3912Zm46.23,2.5506c-4.995,0-9.299,1.8067-12.912,5.4201-3.507,3.5071-5.261,7.8113-5.261,12.9126v53.2446c3.507-6.058,11-11.159,22.477-15.304c9.459-3.401,14.773-9.884,15.942-19.4486c2.125-15.6226-.691-26.569-8.449-32.8393-3.401-2.6569-7.333-3.9854-11.797-3.9854Z"/><path d="M139.517,51.7971c-.212-.1063-.212-.2657,0-.4783.107-.1062.16-.2125.16-.3188h52.606c8.715,0,16.154,3.082,22.318,9.246c6.164,6.1641,9.246,13.6034,9.246,22.3181.425,9.3523-2.073,17.0573-7.493,23.1149-5.313,6.058-12.646,9.14-21.999,9.246-3.613.213-6.217.425-7.811.638-1.594.212-3.613.744-6.058,1.594-2.338.85-4.304,2.019-5.898,3.507-4.676,4.676-7.014,11.69-7.014,21.043v3.666c0,3.826,1.116,7.227,3.348,10.203c2.231,2.869,4.463,4.942,6.695,6.217-.106.106-.159.266-.159.478c0,.107-.054.213-.16.319h-37.462c0-.106-.106-.212-.319-.319-.212-.212-.212-.372,0-.478c1.594-.85,2.976-1.754,4.145-2.71c1.275-1.063,2.232-2.285,2.869-3.667.744-1.487,1.329-2.763,1.754-3.826.531-1.062.85-2.603.956-4.623.213-2.125.319-3.613.319-4.463.107-.85.107-2.551,0-5.101c0-2.551,0-4.198,0-4.942v-52.1287c0-1.3816,0-2.7632,0-4.1448c0-1.4879-.053-2.9226-.159-4.3042c0-1.3816-.106-2.7632-.319-4.1448-.106-1.3816-.319-2.6569-.638-3.8259-.212-1.2753-.584-2.4975-1.115-3.6666-.532-1.169-1.169-2.2318-1.913-3.1883-.638-1.0627-1.488-2.0192-2.551-2.8694-.956-.9565-2.072-1.7536-3.348-2.3912Zm46.23,2.5506c-4.995,0-9.299,1.8067-12.912,5.4201-3.507,3.5071-5.261,7.8113-5.261,12.9126v53.2446c3.507-6.058,11-11.159,22.477-15.304c9.459-3.401,14.773-9.884,15.942-19.4486c2.125-15.6226-.691-26.569-8.449-32.8393-3.401-2.6569-7.333-3.9854-11.797-3.9854Z" fill="url(#eeaJGK8nXtb28-fill)"/></g></g></g><g id="eeaJGK8nXtb29" transform="translate(-2.228712 7.914098)" opacity="0"><g transform="translate(-.717491 0.240399)" filter="url(#eeaJGK8nXtb30-filter)"><g transform="matrix(1.006563 0 0 1-.025632 0.073894)" filter="url(#eeaJGK8nXtb31-filter)"><path d="M13.5648,62.9561c-.3188-.9565-.7971-1.8598-1.4347-2.7101-.5314-.9564-1.1159-1.7535-1.7536-2.3912-.53135-.7439-1.11587-1.4347-1.75352-2.0724-.53138-.6376-1.11589-1.169-1.75354-1.5941-.53138-.5314-1.00962-.9565-1.43472-1.2753-.31883-.3189-.63765-.5845-.95648-.7971s-.47824-.3188-.47824-.3188c0-.1063.05314-.2126.15941-.3189c0-.2125.05314-.3719.15942-.4782h37.46207c.1063.2126.2126.4782.3188.7971-.1062,0-.2657.1062-.4782.3188s-.5314.4782-.9565.7971-.9033.6908-1.4347,1.1159c-.4251.4251-.9565.9565-1.5941,1.5941-.5314.5314-1.0628,1.0628-1.5942,1.5942-2.9757,3.5071-3.8259,7.4393-2.5506,11.7966L59.1569,156.054L80.5183,61.3619c.4251-2.1255.2125-4.0385-.6377-5.7389s-2.1786-2.9757-3.9853-3.8259c0,0-.0531,0-.1594,0c.1063-.3189.2125-.5845.3188-.7971h17.0572c.1063.3188.2126.5845.3188.7971C87.373,57.0046,83.5471,63.2749,81.953,70.608L61.2293,162.59h-18.0137L14.3619,65.1879c-.2126-.9565-.4783-1.7004-.7971-2.2318Z"/><path d="M95.6127,161.793c1.5941-.85,2.9757-1.754,4.1447-2.71c1.2756-1.063,2.2316-2.285,2.8696-3.667.744-1.487,1.328-2.763,1.753-3.826.532-1.062.851-2.603.957-4.623.212-2.019.319-3.454.319-4.304.106-.956.106-2.71,0-5.26c0-2.551,0-4.198,0-4.942v-52.1273c.106-1.3816.106-2.7632,0-4.1448c0-1.4879-.053-2.9226-.16-4.3042c0-1.3816-.106-2.7632-.319-4.1448-.106-1.3816-.318-2.6569-.637-3.8259-.213-1.2753-.585-2.4975-1.116-3.6666-.531-1.169-1.169-2.2318-1.913-3.1882-.638-1.0628-1.488-2.0193-2.5506-2.8695-.9565-.9565-2.0724-1.7536-3.3477-2.3912l.3188-.7971h37.4625l.318.7971c-2.019.9565-3.719,2.1786-5.101,3.6665-1.275,1.4879-2.285,2.9226-3.029,4.3042-.637,1.3816-1.116,3.1883-1.434,5.4201-.319,2.1255-.532,3.9322-.638,5.4201c0,1.4878.053,3.5071.159,6.0577c0,3.826,0,30.7259,0,52.0569c0,19.98,0,14.046,0,14.577.107,4.357.851,8.077,2.232,11.159c1.488,3.082,4.092,5.526,7.811,7.333l-.318.797h-37.4625l-.3188-.797Z"/><path d="M138.083,52.2753c-.213-.1063-.213-.2657,0-.4782.106-.1063.159-.2126.159-.3189h52.606c8.715,0,16.154,3.0821,22.318,9.2461s9.246,13.6033,9.246,22.318c.425,9.3523-2.072,17.0577-7.492,23.1147-5.314,6.058-12.647,9.14-21.999,9.246-3.614.213-6.217.426-7.812.638-1.594.213-3.613.744-6.057,1.594-2.338.85-4.304,2.019-5.899,3.507-4.676,4.677-7.014,11.691-7.014,21.043v3.667c0,3.826,1.116,7.226,3.348,10.202c2.232,2.87,4.464,4.942,6.695,6.217-.106.107-.159.266-.159.479c0,.106-.053.212-.16.318h-37.462c0-.106-.106-.212-.318-.318-.213-.213-.213-.372,0-.479c1.594-.85,2.975-1.753,4.144-2.71c1.276-1.063,2.232-2.285,2.87-3.666.744-1.488,1.328-2.763,1.753-3.826.532-1.063.85-2.604.957-4.623.212-2.126.319-3.614.319-4.464.106-.85.106-2.55,0-5.101c0-2.551,0-4.198,0-4.942v-52.1285c0-1.3816,0-2.7632,0-4.1448c0-1.4878-.054-2.9226-.16-4.3042c0-1.3816-.106-2.7631-.319-4.1447-.106-1.3816-.318-2.6569-.637-3.826-.213-1.2753-.585-2.4975-1.116-3.6665-.532-1.1691-1.169-2.2318-1.913-3.1883-.638-1.0628-1.488-2.0193-2.551-2.8695-.956-.9564-2.072-1.7535-3.347-2.3912Zm46.229,2.5507c-4.995,0-9.299,1.8067-12.912,5.42-3.507,3.5072-5.261,7.8114-5.261,12.9126v53.2444c3.507-6.058,11-11.159,22.478-15.304c9.458-3.401,14.772-9.883,15.941-19.4483c2.125-15.6226-.691-26.5691-8.449-32.8394-3.401-2.6569-7.333-3.9853-11.797-3.9853Z"/></g></g><g transform="translate(-.654891 0.238998)" filter="url(#eeaJGK8nXtb35-filter)"><path d="M139.603,17.5058c-1.186,0-2.154.9164-2.154,2.0502c0,.4993.207.9458.53,1.3041-2.551,1.8681-7.652,5.1872-11.863,5.4574-.632-3.325.23-7.5722.867-10.0042.18.047.364.1058.562.1058c1.195,0,2.155-.9165,2.155-2.0502c0-1.1338-.964-2.0502-2.155-2.0502-1.19,0-2.154.9164-2.154,2.0502c0,.7578.457,1.3922,1.103,1.7447-2.071,3.1134-4.797,5.4221-7.067,6.5676-3.385-4.6584-5.129-12.81214-5.475-18.59259c1.158-.04112,2.09-.92816,2.09-2.03843s-.969-2.05018-2.164-2.05018c-1.194,0-2.154.916412-2.154,2.05018s.927,1.99731,2.09,2.03843c-.342,5.78632-2.09,13.93419-5.485,18.59259-2.26-1.1455-4.986-3.4542-7.057-6.5676.646-.3525,1.103-.9869,1.103-1.7447c0-1.1338-.969-2.0502-2.164-2.0502-1.1943,0-2.1537.9164-2.1537,2.0502c0,1.1337.9594,2.0502,2.1537,2.0502.199,0,.383-.0588.572-.1058.637,2.432,1.499,6.6792.867,10.0042-4.2154-.2702-9.3077-3.5893-11.8631-5.4574.3137-.3583.5305-.8048.5305-1.3041c0-1.1338-.9687-2.0502-2.1633-2.0502-1.1947,0-2.1541.9164-2.1541,2.0502s.9686,2.0443,2.1541,2.0443c.512,0,.9594-.1938,1.3238-.4699c7.8552,9.5342,8.9714,22.2347,8.9714,22.2347c5.3507-1.0457,15.4247-1.2278,15.4247-1.2278s10.083.1821,15.443,1.2278c0,0,1.111-12.6947,8.962-22.2347.364.2819.812.4699,1.319.4699c1.186,0,2.154-.9164,2.154-2.0443s-.968-2.0502-2.154-2.0502h.005Z"/></g></g><path id="eeaJGK8nXtb37" d="M6,3.00005c-2.87501.06903-2.93096.12501-2.99996,3.00004C2.93096,3.12506,2.87501,3.06908,0,3.00005C2.87501,2.93101,2.93096,2.87504,3.00004,0C3.06904,2.87504,3.12508,2.93101,6,3.00005Z" transform="matrix(8.343137 0 0 8.790142 13.000871 33.54507)" opacity="0" fill="#fff"/><path id="eeaJGK8nXtb38" d="M6,3.00005c-2.87501.06903-2.93096.12501-2.99996,3.00004C2.93096,3.12506,2.87501,3.06908,0,3.00005C2.87501,2.93101,2.93096,2.87504,3.00004,0C3.06904,2.87504,3.12508,2.93101,6,3.00005Z" transform="matrix(5.252921 0 0 5.534379 121.131925 11.492048)" opacity="0" fill="#fff"/><path id="eeaJGK8nXtb39" d="M6,3.00005c-2.87501.06903-2.93096.12501-2.99996,3.00004C2.93096,3.12506,2.87501,3.06908,0,3.00005C2.87501,2.93101,2.93096,2.87504,3.00004,0C3.06904,2.87504,3.12508,2.93101,6,3.00005Z" transform="matrix(6.769528 0 0 7.132235 143.707632 111.96786)" opacity="0" fill="#fff"/></svg>
